# xmcd CD database file
#
# Track frame offsets:
#	150
#	20034
#	36391
#	60728
#	80709
#	102670
#	124238
#	147093
#	165079
#	185183
#	205128
#	230386
#	258390
#	280669
#
# Disc length: 4132 seconds
#
# Revision: 0
# Processed by: cddbd v1.5PL3 Copyright (c) Steve Scherf et al.
# Submitted via: CDex 1.50beta10
#
DISCID=cc10220e
DTITLE=Sam Myers - Coming From The Old School
DYEAR=2004
DGENRE=Blues
TTITLE0=I'm Tired Of Your Jive
TTITLE1=Ninety Nine
TTITLE2=I Got A Thing For The Voodoo Woman
TTITLE3=Burning Fire
TTITLE4=Waitin' On You Mama
TTITLE5=I Got The Blues
TTITLE6=My Daily Wish
TTITLE7=You Don't Know What Love Is All About
TTITLE8=Coming From The Old School
TTITLE9=Country Boy
TTITLE10=Money Is My Downfall
TTITLE11=After Hours When The Joint Is Closed
TTITLE12=Packing Up My Blues
TTITLE13=Let You Slowly Bring Me Down
EXTD=YEAR: 2004
EXTT0=
EXTT1=
EXTT2=
EXTT3=
EXTT4=
EXTT5=
EXTT6=
EXTT7=
EXTT8=
EXTT9=
EXTT10=
EXTT11=
EXTT12=
EXTT13=
PLAYORDER=
